# File created by Blade
# Date/Time:  Wed Jan 21 19:09:01 2015
#---------------------------------------------------------
:version 1.10
:name HOM
:units
  mass 1.0
  length 1.000000
  angle deg
:documentation
     Acclaim Skeleton File
:root
   axis xyz
   order TX TY TZ RX RY RZ
   position 0.000000 0.000000 0.000000
   orientation 0 0 0
:bonedata
   begin
      id 1
      name RightUpLeg_dum
      direction -1.000000 0.000000 0.000000
      length 3.693983
      axis 0.0 0.0 0.0 xyz
   end
   begin
      id 2
      name LeftUpLeg_dum
      direction 1.000000 0.000000 0.000000
      length 3.693983
      axis 0.0 0.0 0.0 xyz
   end
   begin
      id 3
      name Spine_dum
      direction 0.000000 1.000000 0.000000
      length 2.392956
      axis 0.0 0.0 0.0 xyz
   end
   begin
      id 4
      name RightUpLeg
      direction 0.000000 -1.000000 0.000000
      length 15.795667
      axis 0.0 0.0 0.0 xyz
      dof rx ry rz
   end
   begin
      id 5
      name RightLeg
      direction 0.000000 -1.000000 0.000000
      length 14.766989
      axis 0.0 0.0 0.0 xyz
      dof rx ry rz
   end
   begin
      id 6
      name RightFoot
      direction 0.000000 -0.258819 0.965926
      length 4.962790
      axis 15.0 0.0 0.0 xyz
      dof rx ry rz
   end
   begin
      id 7
      name RightToeBase
      direction 0.000000 0.000000 1.000000
      length 2.952750
      axis 0.0 0.0 0.0 xyz
      dof rx ry rz
   end
   begin
      id 8
      name LeftUpLeg
      direction 0.000000 -1.000000 0.000000
      length 15.795667
      axis 0.0 0.0 0.0 xyz
      dof rx ry rz
   end
   begin
      id 9
      name LeftLeg
      direction 0.000000 -1.000000 0.000000
      length 14.766989
      axis 0.0 0.0 0.0 xyz
      dof rx ry rz
   end
   begin
      id 10
      name LeftFoot
      direction 0.000000 -0.258819 0.965926
      length 4.962790
      axis 15.0 0.0 0.0 xyz
      dof rx ry rz
   end
   begin
      id 11
      name LeftToeBase
      direction 0.000000 0.000000 1.000000
      length 2.952750
      axis 0.0 0.0 0.0 xyz
      dof rx ry rz
   end
   begin
      id 12
      name Spine
      direction 0.000000 1.000000 0.000000
      length 0.000000
      axis 0.0 0.0 0.0 xyz
      dof rx ry rz
   end
   begin
      id 13
      name Spine_dum1
      direction 0.000000 1.000000 0.000000
      length 13.207411
      axis 0.0 0.0 0.0 xyz
   end
   begin
      id 14
      name Spine_dum2
      direction 0.000000 1.000000 0.000000
      length 13.207411
      axis 0.0 0.0 0.0 xyz
   end
   begin
      id 15
      name Spine_dum3
      direction 0.000000 1.000000 0.000000
      length 19.250100
      axis 0.0 0.0 0.0 xyz
   end
   begin
      id 16
      name RightShoulder
      direction -1.000000 0.000000 0.000000
      length 8.140465
      axis 0.0 0.0 90.0 xyz
      dof rx ry rz
   end
   begin
      id 17
      name RightArm
      direction -1.000000 0.000000 0.000000
      length 10.649840
      axis 0.0 0.0 90.0 xyz
      dof rx ry rz
   end
   begin
      id 18
      name RightForeArm
      direction -1.000000 0.000000 0.000000
      length 8.304624
      axis 0.0 0.0 90.0 xyz
      dof ry rz rx
   end
   begin
      id 19
      name RightHand
      direction -1.000000 0.000000 0.000000
      length 0.000000
      axis 0.0 0.0 90.0 xyz
      dof rx ry rz
   end
   begin
      id 20
      name RightHand_dum1
      direction -1.000000 0.000000 0.000000
      length 3.937000
      axis 0.0 0.0 90.0 xyz
   end
   begin
      id 21
      name RightHand_dum2
      direction 0.000000 0.000000 0.000000
      length 0.000000
      axis 0.0 0.0 90.0 xyz
   end
   begin
      id 22
      name RightHandThumb1
      direction 0.000000 0.000000 1.000000
      length 3.937000
      axis 0.0 0.0 90.0 xyz
      dof rx rz ry
   end
   begin
      id 23
      name LeftShoulder
      direction 1.000000 0.000000 0.000000
      length 8.140465
      axis 0.0 0.0 -90.0 xyz
      dof rx ry rz
   end
   begin
      id 24
      name LeftArm
      direction 1.000000 0.000000 0.000000
      length 10.649840
      axis 0.0 0.0 -90.0 xyz
      dof rx ry rz
   end
   begin
      id 25
      name LeftForeArm
      direction 1.000000 0.000000 0.000000
      length 8.304624
      axis 0.0 0.0 -90.0 xyz
      dof ry rz rx
   end
   begin
      id 26
      name LeftHand
      direction 1.000000 0.000000 0.000000
      length 0.000000
      axis 0.0 0.0 -90.0 xyz
      dof rx ry rz
   end
   begin
      id 27
      name LeftHand_dum1
      direction 1.000000 0.000000 0.000000
      length 3.937000
      axis 0.0 0.0 -90.0 xyz
   end
   begin
      id 28
      name LeftHand_dum2
      direction 0.000000 0.000000 0.000000
      length 0.000000
      axis 0.0 0.0 -90.0 xyz
   end
   begin
      id 29
      name LeftHandThumb1
      direction 0.000000 0.000000 1.000000
      length 3.937000
      axis 0.0 0.0 -90.0 xyz
      dof rx rz ry
   end
   begin
      id 30
      name Head
      direction 0.000000 1.000000 0.000000
      length 4.527550
      axis 0.0 0.0 0.0 xyz
      dof rx ry rz
   end
:hierarchy
   begin
      root RightUpLeg_dum LeftUpLeg_dum Spine_dum
      RightUpLeg_dum RightUpLeg
      LeftUpLeg_dum LeftUpLeg
      Spine_dum Spine
      RightUpLeg RightLeg
      RightLeg RightFoot
      RightFoot RightToeBase
      LeftUpLeg LeftLeg
      LeftLeg LeftFoot
      LeftFoot LeftToeBase
      Spine Spine_dum1 Spine_dum2 Spine_dum3
      Spine_dum1 RightShoulder
      Spine_dum2 LeftShoulder
      Spine_dum3 Head
      RightShoulder RightArm
      RightArm RightForeArm
      RightForeArm RightHand
      RightHand RightHand_dum1 RightHand_dum2
      RightHand_dum2 RightHandThumb1
      LeftShoulder LeftArm
      LeftArm LeftForeArm
      LeftForeArm LeftHand
      LeftHand LeftHand_dum1 LeftHand_dum2
      LeftHand_dum2 LeftHandThumb1
   end

# File created by Blade
# Date/Time:  Wed Jan 21 19:08:52 2015
# Frame Rate: 120.000 fps
#------------------------------------------------------
:FULLY-SPECIFIED
:DEGREES
2234
root -0.436397 31.808635 -10.055049 55.682440 -17.809443 4.721411
RightUpLeg -50.107892 7.146989 6.286618
RightLeg -6.714425 -0.000000 0.000000
RightFoot -6.754437 2.993952 7.539458
RightToeBase 19.217091 -0.000000 -0.000000
LeftUpLeg -64.165411 -11.354008 -6.652961
LeftLeg 4.206890 -0.000000 -0.000000
LeftFoot -5.520760 6.102495 -3.660822
LeftToeBase 8.960178 -0.000000 -0.000000
Spine -39.765373 -19.448757 -16.606997
RightShoulder -23.490964 20.104590 -65.314941
RightArm -7.429101 -4.085478 22.778491
RightForeArm 55.120413 -0.000000 0.252636
RightHand 15.388243 -0.000000 13.370726
RightHandThumb1 -24.326973 -0.000000 -32.862282
LeftShoulder -6.176862 3.755121 5.813372
LeftArm 16.924790 19.955339 -77.809960
LeftForeArm 4.853278 -0.000000 -1.163378
LeftHand -12.408691 -0.000000 -1.619802
LeftHandThumb1 -26.253704 0.000000 33.147579
Head -8.714551 13.883204 -14.915568
2235
root -0.431357 31.812898 -10.024694 55.600213 -17.828176 4.748720
RightUpLeg -49.974912 7.049364 6.300325
RightLeg -6.721825 -0.000000 0.000000
RightFoot -6.822372 3.078515 7.824067
RightToeBase 19.276597 -0.000000 -0.000000
LeftUpLeg -64.028197 -11.402688 -6.678319
LeftLeg 4.190950 -0.000000 -0.000000
LeftFoot -5.585075 6.240510 -3.653173
LeftToeBase 8.952714 -0.000000 -0.000000
Spine -39.939510 -19.130716 -16.472431
RightShoulder -23.235404 20.102803 -64.893669
RightArm -7.321245 -4.124603 23.104385
RightForeArm 54.953803 -0.000000 0.323076
RightHand 15.319093 -0.000000 13.344943
RightHandThumb1 -24.326973 -0.000000 -32.862282
LeftShoulder -6.218183 3.713719 6.071415
LeftArm 16.839135 19.992816 -78.060223
LeftForeArm 4.832596 -0.000000 -1.158781
LeftHand -12.477220 0.000000 -1.653018
LeftHandThumb1 -26.253704 0.000000 33.147579
Head -8.473371 13.924471 -14.378850
2236
root -0.439176 31.816941 -9.988335 55.467449 -17.811017 4.771824
RightUpLeg -49.736191 6.930641 6.378502
RightLeg -6.796023 -0.000000 0.000000
RightFoot -6.837412 3.217627 8.123968
RightToeBase 19.448462 -0.000000 -0.000000
LeftUpLeg -63.803892 -11.392229 -6.766923
LeftLeg 4.167282 -0.000000 -0.000000
LeftFoot -5.654535 6.233221 -3.640997
LeftToeBase 8.813746 -0.000000 -0.000000
Spine -40.041498 -18.769660 -16.392262
RightShoulder -23.061182 20.023210 -64.483613
RightArm -7.138426 -4.125521 23.442985
RightForeArm 54.847256 -0.000000 0.353950
RightHand 15.244312 -0.000000 13.502883
RightHandThumb1 -24.326973 -0.000000 -32.862282
LeftShoulder -6.229053 3.658904 6.353896
LeftArm 16.732967 20.023115 -78.283805
LeftForeArm 4.709778 -0.000000 -1.114888
LeftHand -12.573583 -0.000000 -1.305250
LeftHandThumb1 -26.253704 0.000000 33.147579
Head -8.248216 13.776193 -13.847045
2237
root -0.440954 31.822151 -9.955190 55.351679 -17.782290 4.799593
RightUpLeg -49.542062 6.793949 6.448909
RightLeg -6.843885 -0.000000 0.000000
RightFoot -6.902900 3.383794 8.612583
RightToeBase 19.970423 -0.000000 -0.000000
LeftUpLeg -63.604729 -11.395115 -6.861969
LeftLeg 4.146208 -0.000000 -0.000000
LeftFoot -5.687344 6.215310 -3.570056
LeftToeBase 8.712253 -0.000000 -0.000000
Spine -40.171755 -18.484759 -16.225937
RightShoulder -22.801986 20.054156 -64.065258
RightArm -7.044488 -4.147780 23.759541
RightForeArm 54.837310 -0.000000 0.423677
RightHand 15.317782 -0.000000 13.385035
RightHandThumb1 -24.326973 -0.000000 -32.862282
LeftShoulder -6.297162 3.676773 6.614684
LeftArm 16.643670 19.899922 -78.506886
LeftForeArm 4.544067 -0.000000 -1.012942
LeftHand -12.581407 -0.000000 -1.160584
LeftHandThumb1 -26.253704 0.000000 33.147579
Head -7.977694 13.837918 -13.272974
2238
root -0.447727 31.826445 -9.921800 55.225670 -17.728827 4.841451
RightUpLeg -49.472832 6.291678 6.918649
RightLeg -6.528812 -0.000000 0.000000
RightFoot -7.080163 4.290574 9.149246
RightToeBase 20.320074 -0.000000 -0.000000
LeftUpLeg -63.383992 -11.365574 -7.024668
LeftLeg 4.127330 -0.000000 -0.000000
LeftFoot -5.725906 6.080716 -3.587664
LeftToeBase 8.645899 -0.000000 -0.000000
Spine -40.264457 -18.164834 -16.118908
RightShoulder -22.606259 20.084407 -63.673442
RightArm -6.946395 -4.235813 24.058392
RightForeArm 54.801888 0.000000 0.496263
RightHand 15.158888 -0.000000 13.447807
RightHandThumb1 -24.326973 -0.000000 -32.862282
LeftShoulder -6.278237 3.714820 6.901193
LeftArm 16.596292 19.715332 -78.744269
LeftForeArm 4.569871 -0.000000 -0.939292
LeftHand -12.710406 0.000000 -1.046655
LeftHandThumb1 -26.253704 0.000000 33.147579
Head -7.729287 13.774522 -12.720054
2239
root -0.455052 31.831807 -9.886934 55.131088 -17.694124 4.869655
RightUpLeg -49.295726 6.133178 7.020245
RightLeg -6.564535 -0.000000 0.000000
RightFoot -7.150370 4.518810 9.736072
RightToeBase 20.772869 -0.000000 -0.000000
LeftUpLeg -63.210738 -11.377969 -7.086876
LeftLeg 4.119422 -0.000000 -0.000000
LeftFoot -5.812457 6.078791 -3.563575
LeftToeBase 8.646406 -0.000000 -0.000000
Spine -40.407473 -17.864163 -15.967921
RightShoulder -22.384107 20.111337 -63.274345
RightArm -6.820652 -4.358864 24.380692
RightForeArm 54.695658 -0.000000 0.571401
RightHand 15.082761 0.000000 13.486239
RightHandThumb1 -24.326973 -0.000000 -32.862282
LeftShoulder -6.331043 3.746488 7.177507
LeftArm 16.593286 20.324178 -78.750557
LeftForeArm 3.893951 -0.000000 -0.792222
LeftHand -12.966962 -0.000000 -0.752850
LeftHandThumb1 -26.253704 0.000000 33.147579
Head -7.504365 13.766947 -12.215303
2240
root -0.469450 31.833831 -9.845025 54.992353 -17.705478 4.846829
RightUpLeg -49.022713 6.023390 7.143790
RightLeg -6.631764 -0.000000 0.000000
RightFoot -7.172919 4.749378 10.342733
RightToeBase 21.132703 -0.000000 -0.000000
LeftUpLeg -63.035671 -11.580881 -6.687801
LeftLeg 4.084576 -0.000000 -0.000000
LeftFoot -6.021104 6.648308 -3.666939
LeftToeBase 8.626290 -0.000000 -0.000000
Spine -40.513047 -17.471492 -15.877037
RightShoulder -22.189244 20.103017 -62.884594
RightArm -6.670146 -4.395306 24.696260
RightForeArm 54.497842 -0.000000 0.640096
RightHand 15.298791 -0.000000 13.025558
RightHandThumb1 -24.326973 -0.000000 -32.862282
LeftShoulder -6.354557 3.808079 7.496483
LeftArm 16.572919 20.208482 -78.953734
LeftForeArm 3.822007 -0.000000 -0.807122
LeftHand -12.905625 -0.000000 -0.724573
LeftHandThumb1 -26.253704 0.000000 33.147579
Head -7.236779 13.720498 -11.665365
2241
root -0.480434 31.838464 -9.808224 54.866484 -17.696728 4.863521
RightUpLeg -48.804160 5.875559 7.251774
RightLeg -6.664054 -0.000000 0.000000
RightFoot -7.196468 4.963570 10.845568
RightToeBase 21.416967 -0.000000 -0.000000
LeftUpLeg -62.818914 -11.629708 -6.657442
LeftLeg 4.031584 -0.000000 -0.000000
LeftFoot -6.121522 6.807747 -3.676968
LeftToeBase 8.505747 -0.000000 -0.000000
Spine -40.613921 -17.140310 -15.763646
RightShoulder -21.984627 20.137868 -62.469156
RightArm -6.525170 -4.463203 24.957647
RightForeArm 54.168533 -0.000000 0.754963
RightHand 15.327119 -0.000000 12.833075
RightHandThumb1 -24.326973 -0.000000 -32.862282
LeftShoulder -6.373823 3.856834 7.783928
LeftArm 16.529050 19.940924 -79.169952
LeftForeArm 4.012146 -0.000000 -0.772712
LeftHand -13.042522 -0.000000 -0.823929
LeftHandThumb1 -26.253704 0.000000 33.147579
Head -7.056697 13.673342 -11.163103
2242
root -0.492581 31.843181 -9.773011 54.778927 -17.684278 4.906520
RightUpLeg -48.644714 5.723219 7.333850
RightLeg -6.682285 -0.000000 0.000000
RightFoot -7.199425 5.175074 11.236735
RightToeBase 21.529961 -0.000000 -0.000000
LeftUpLeg -62.641550 -11.647951 -6.722852
LeftLeg 3.999120 -0.000000 -0.000000
LeftFoot -6.198048 6.829547 -3.681970
LeftToeBase 8.473705 -0.000000 -0.000000
Spine -40.741426 -16.853603 -15.638034
RightShoulder -21.792374 20.175029 -62.088722
RightArm -6.394511 -4.479195 25.254409
RightForeArm 53.580787 0.000000 0.886081
RightHand 15.395697 -0.000000 12.495125
RightHandThumb1 -24.326973 -0.000000 -32.862282
LeftShoulder -6.452414 3.834375 8.095790
LeftArm 16.460842 19.736693 -79.382004
LeftForeArm 4.022137 0.000000 -0.785180
LeftHand -12.991171 -0.000000 -0.543034
LeftHandThumb1 -26.253704 0.000000 33.147579
Head -6.897571 13.600732 -10.699771
2243
root -0.506093 31.846816 -9.734730 54.674334 -17.713252 4.953056
RightUpLeg -48.460243 5.624322 7.352329
RightLeg -6.716844 -0.000000 0.000000
RightFoot -7.228568 5.323570 11.692770
RightToeBase 21.791735 -0.000000 -0.000000
LeftUpLeg -62.437790 -11.647265 -6.815540
LeftLeg 3.956418 -0.000000 -0.000000
LeftFoot -6.292723 6.845452 -3.728338
LeftToeBase 8.488649 -0.000000 -0.000000
Spine -40.856391 -16.517173 -15.589988
RightShoulder -21.632580 20.215571 -61.707893
RightArm -6.220322 -4.656566 25.527400
RightForeArm 52.981772 -0.000000 0.959497
RightHand 15.379187 0.000000 12.182712
RightHandThumb1 -24.326973 -0.000000 -32.862282
LeftShoulder -6.448223 3.860540 8.433457
LeftArm 16.372774 19.389322 -79.635634
LeftForeArm 4.252935 -0.000000 -0.715920
LeftHand -13.060718 0.000000 -0.397223
LeftHandThumb1 -26.253704 0.000000 33.147579
Head -6.766305 13.439314 -10.235183
